<?xml version="1.0" encoding="utf-8"?>
<!-- Generator: Adobe Illustrator 25.2.1, SVG Export Plug-In . SVG Version: 6.00 Build 0)  -->
<svg version="1.1" id="Layer_1" xmlns="http://www.w3.org/2000/svg" xmlns:xlink="http://www.w3.org/1999/xlink" x="0px" y="0px"
	 viewBox="0 0 1080 1080" style="enable-background:new 0 0 1080 1080;" xml:space="preserve">
<style type="text/css">
	.st0{fill-rule:evenodd;clip-rule:evenodd;fill:#FFFFFF;}
	.st1{fill-rule:evenodd;clip-rule:evenodd;fill:#BAB8C6;}
	.st2{fill-rule:evenodd;clip-rule:evenodd;fill:#9F9DA8;}
	.st3{fill-rule:evenodd;clip-rule:evenodd;fill:#062744;}
	.st4{fill-rule:evenodd;clip-rule:evenodd;fill:#FFFFFF;filter:url(#Adobe_OpacityMaskFilter);}
	.st5{opacity:0.65;mask:url(#mask0_2053_3786_1_);}
	.st6{fill-rule:evenodd;clip-rule:evenodd;fill:#EBE313;}
	.st7{fill:#9F9DA8;}
</style>
<g id="Rear_Over_Ground_Floor">
	<path class="st1" d="M219.19,348.26L649.9,596.88v289.26L219.19,637.5V348.26z"/>
	<path class="st2" d="M649.89,596.9l107.57-186.06l107.04,61.78V762.2L649.89,886.14V596.9z"/>
	<path class="st3" d="M326.85,161.87l-107.66,186.4L649.9,596.9l107.57-186.06L326.85,161.87z"/>
	<defs>
		<filter id="Adobe_OpacityMaskFilter" filterUnits="userSpaceOnUse" x="649.88" y="679.46" width="398.76" height="206.69">
			<feColorMatrix  type="matrix" values="1 0 0 0 0  0 1 0 0 0  0 0 1 0 0  0 0 0 1 0"/>
		</filter>
	</defs>
	<mask maskUnits="userSpaceOnUse" x="649.88" y="679.46" width="398.76" height="206.69" id="mask0_2053_3786_1_">
		<path class="st4" d="M649.88,679.46h398.75v206.69H649.88V679.46z"/>
	</mask>
	<g class="st5">
		<path class="st1" d="M864.89,679.46l183.74,105.83L649.88,886.15l215.01-124.21V679.46z"/>
	</g>
	<path class="st1" d="M31.36,762.74l267.67,155.37V681.6L31.36,490.21V762.74z"/>
	<path class="st2" d="M299.03,681.61v236.51l202.21-116.78V564.62L299.03,681.61z"/>
	<path class="st3" d="M31.36,489.4l267.67,192.2l202.19-116.98L218.56,364.25L31.36,489.4z"/>
	<g>
		<polygon class="st6" points="32.36,613.98 32.36,492.13 298.04,682.12 298.04,768.19 		"/>
		<path class="st7" d="M33.36,494.07l263.67,188.56v83.82L33.36,613.4V494.07 M31.36,490.19v124.37l267.67,155.37V681.6
			L31.36,490.19L31.36,490.19z"/>
	</g>
	<g>
		<polygon class="st6" points="300.04,682.19 389.31,631.71 389.31,717.96 300.04,768.22 		"/>
		<path class="st7" d="M388.31,633.42v83.95l-87.27,49.14v-83.74L388.31,633.42 M390.31,629.99l-91.27,51.61v88.32l91.27-51.39
			V629.99L390.31,629.99z"/>
	</g>
	<g>
		<polygon class="st6" points="33.12,489.42 114.72,434.67 388.46,628.71 299.1,680.4 		"/>
		<path class="st7" d="M114.71,435.89l271.9,192.74l-87.45,50.59L34.87,489.45L114.71,435.89 M114.74,433.46L31.36,489.4
			l267.67,192.2l91.27-52.79L114.74,433.46L114.74,433.46z"/>
	</g>
</g>
</svg>
