<?xml version="1.0" encoding="utf-8"?>
<!-- Generator: Adobe Illustrator 25.2.1, SVG Export Plug-In . SVG Version: 6.00 Build 0)  -->
<svg version="1.1" id="Layer_1" xmlns="http://www.w3.org/2000/svg" xmlns:xlink="http://www.w3.org/1999/xlink" x="0px" y="0px"
	 viewBox="0 0 1080 1080" style="enable-background:new 0 0 1080 1080;" xml:space="preserve">
<style type="text/css">
	.st0{fill-rule:evenodd;clip-rule:evenodd;fill:#FFFFFF;}
	.st1{fill-rule:evenodd;clip-rule:evenodd;fill:#BAB8C6;}
	.st2{fill-rule:evenodd;clip-rule:evenodd;fill:#9F9DA8;}
	.st3{fill-rule:evenodd;clip-rule:evenodd;fill:#062744;}
	.st4{fill-rule:evenodd;clip-rule:evenodd;fill:#FFFFFF;filter:url(#Adobe_OpacityMaskFilter);}
	.st5{opacity:0.65;mask:url(#mask0_2053_3800_1_);}
	.st6{opacity:0.65;fill-rule:evenodd;clip-rule:evenodd;fill:#BAB8C6;}
	.st7{fill-rule:evenodd;clip-rule:evenodd;fill:#EBE313;}
	.st8{fill:#9F9DA8;}
	.st9{fill-rule:evenodd;clip-rule:evenodd;fill:#C5C4CF;}
</style>
<g id="Side_And_Rear_Extension_1_">
	<path class="st1" d="M146.7,664.72l473.24,273.24V620.09L146.7,346.85V664.72z"/>
	<path class="st2" d="M619.93,620.1v317.86l235.81-136.15v-318.3l-117.59-67.79L619.93,620.1z"/>
	<path class="st3" d="M264.91,142.04L146.7,346.87l473.24,273.22l118.22-204.35L264.91,142.04z"/>
	<defs>
		<filter id="Adobe_OpacityMaskFilter" filterUnits="userSpaceOnUse" x="619.93" y="710.82" width="438.27" height="227.12">
			<feColorMatrix  type="matrix" values="1 0 0 0 0  0 1 0 0 0  0 0 1 0 0  0 0 0 1 0"/>
		</filter>
	</defs>
	<mask maskUnits="userSpaceOnUse" x="619.93" y="710.82" width="438.27" height="227.12" id="mask0_2053_3800_1_">
		<path class="st4" d="M619.93,710.82h438.27v227.12H619.93V710.82z"/>
	</mask>
	<g class="st5">
		<path class="st1" d="M856.18,710.82L1058.2,827.1L619.93,937.94l236.25-136.47V710.82z"/>
	</g>
	<path class="st6" d="M386.11,802.95l-175.15,44.28l124.9-73.16L386.11,802.95z"/>
	<g>
		<polygon class="st7" points="480.14,687.93 480.14,540.24 618.92,621.45 618.92,769.16 		"/>
		<path class="st8" d="M481.14,541.99l136.78,80.04v145.39l-136.78-80.06V541.99 M479.14,538.5v150l140.78,82.4V620.88L479.14,538.5
			L479.14,538.5z"/>
	</g>
	<g>
		<polygon class="st7" points="620.93,621.16 738.51,417.79 854.74,484.9 854.74,634.19 620.93,769.18 		"/>
		<path class="st8" d="M738.87,419.16l114.86,66.33v148.13L621.93,767.45V621.43L738.87,419.16 M738.14,416.42L619.93,620.89v150.02
			l235.81-136.15V484.33L738.14,416.42L738.14,416.42z"/>
	</g>
	<g>
		<polygon class="st7" points="480.51,538.15 597.73,335.05 736.78,416.78 619.57,619.51 		"/>
		<path class="st8" d="M598.09,336.42l137.33,80.72L619.2,618.14l-137.33-80.36L598.09,336.42 M597.36,333.67L479.15,538.51
			l140.78,82.38l118.22-204.46L597.36,333.67L597.36,333.67z"/>
	</g>
	<path class="st1" d="M21.8,736.66l189.18,109.5V677.89L21.8,568.36V736.66z"/>
	<path class="st9" d="M21.8,568.36l189.18,110.31l124.9-73.09L146.7,495.38L21.8,568.36z"/>
	<path class="st2" d="M335.88,605.6v168.46l-124.9,72.12v-168.3L335.88,605.6z"/>
	<g>
		<polygon class="st7" points="22.8,568.58 22.8,421.33 209.98,530.38 209.98,676.94 		"/>
		<path class="st8" d="M23.8,423.07l185.18,107.89v144.25L23.8,568V423.07 M21.8,419.59v149.56l189.18,109.53V529.81L21.8,419.59
			L21.8,419.59z"/>
	</g>
	<g>
		<polygon class="st7" points="23.78,419.59 146.7,347.66 333.9,456.13 210.98,528.65 		"/>
		<path class="st8" d="M146.7,348.82l185.22,107.32l-120.95,71.35L25.76,419.59L146.7,348.82 M146.7,346.5L21.8,419.59
			l189.18,110.22l124.9-73.69L146.7,346.5L146.7,346.5z"/>
	</g>
	<g>
		<polygon class="st7" points="211.98,530.39 334.88,457.88 334.88,605.99 211.98,676.96 		"/>
		<path class="st8" d="M333.88,459.63v145.78l-120.9,69.81V530.96L333.88,459.63 M335.88,456.13l-124.9,73.69v148.87l124.9-72.12
			V456.13L335.88,456.13z"/>
	</g>
</g>
</svg>
