<?xml version="1.0" encoding="utf-8"?>
<!-- Generator: Adobe Illustrator 25.2.1, SVG Export Plug-In . SVG Version: 6.00 Build 0)  -->
<svg version="1.1" id="Layer_1" xmlns="http://www.w3.org/2000/svg" xmlns:xlink="http://www.w3.org/1999/xlink" x="0px" y="0px"
	 viewBox="0 0 1080 1080" style="enable-background:new 0 0 1080 1080;" xml:space="preserve">
<style type="text/css">
	.st0{fill-rule:evenodd;clip-rule:evenodd;fill:#FFFFFF;}
	.st1{fill-rule:evenodd;clip-rule:evenodd;fill:#BAB8C6;}
	.st2{fill-rule:evenodd;clip-rule:evenodd;fill:#9F9DA8;}
	.st3{fill-rule:evenodd;clip-rule:evenodd;fill:#062744;}
	.st4{fill-rule:evenodd;clip-rule:evenodd;fill:#FFFFFF;filter:url(#Adobe_OpacityMaskFilter);}
	.st5{opacity:0.65;mask:url(#mask0_2053_3819_1_);}
	.st6{opacity:0.65;fill-rule:evenodd;clip-rule:evenodd;fill:#BAB8C6;}
	.st7{fill-rule:evenodd;clip-rule:evenodd;fill:#C5C4CF;}
	.st8{fill-rule:evenodd;clip-rule:evenodd;fill:#EBE313;}
	.st9{fill:#9F9DA8;}
</style>
<g id="Rear_Extension_1_">
	<path class="st1" d="M149.48,663.83l469.87,271.3v-315.6l-469.87-271.3V663.83z"/>
	<path class="st2" d="M619.34,619.54v315.58l234.16-135.16V483.91l-116.78-67.32L619.34,619.54z"/>
	<path class="st3" d="M266.86,144.87L149.49,348.22l469.85,271.32L736.73,416.6L266.9,144.87H266.86z"/>
	<defs>
		<filter id="Adobe_OpacityMaskFilter" filterUnits="userSpaceOnUse" x="619.36" y="709.6" width="435.16" height="225.52">
			<feColorMatrix  type="matrix" values="1 0 0 0 0  0 1 0 0 0  0 0 1 0 0  0 0 0 1 0"/>
		</filter>
	</defs>
	<mask maskUnits="userSpaceOnUse" x="619.36" y="709.6" width="435.16" height="225.52" id="mask0_2053_3819_1_">
		<path class="st4" d="M619.36,709.6h435.16v225.52H619.36V709.6z"/>
	</mask>
	<g class="st5">
		<path class="st1" d="M853.95,709.6l200.57,115.48L619.36,935.13l234.59-135.52V709.6z"/>
	</g>
	<path class="st6" d="M387.22,801.09l-173.89,43.94l124-72.64L387.22,801.09z"/>
	<path class="st1" d="M25.48,735.24l187.85,108.74V676.9L25.48,568.15V735.24z"/>
	<path class="st7" d="M25.48,568.16l187.85,109.53l124.01-72.55L149.49,495.7L25.48,568.16z"/>
	<path class="st2" d="M337.32,605.13V772.4l-124,71.61V676.9L337.32,605.13z"/>
	<g>
		<polygon class="st8" points="26.48,568.37 26.48,422.16 212.33,530.43 212.33,675.96 		"/>
		<path class="st9" d="M27.48,423.9l183.85,107.11v143.22L27.48,567.8V423.9 M25.48,420.42v148.53l187.85,108.74V529.86
			L25.48,420.42L25.48,420.42z"/>
	</g>
	<g>
		<polygon class="st8" points="27.47,420.42 149.49,349.03 335.35,456.69 213.32,528.7 		"/>
		<path class="st9" d="M149.49,350.18L333.37,456.7l-120.05,70.84L29.45,420.41L149.49,350.18 M149.49,347.87l-124,72.55
			l187.85,109.44l124.01-73.18L149.49,347.87L149.49,347.87z"/>
	</g>
	<g>
		<polygon class="st8" points="214.32,530.46 336.32,458.46 336.32,605.51 214.32,675.97 		"/>
		<path class="st9" d="M335.32,460.21v144.73l-120,69.3V531.03L335.32,460.21 M337.32,456.71l-124,73.18V677.7l124-71.61V456.71
			L337.32,456.71z"/>
	</g>
</g>
</svg>
