<?xml version="1.0" encoding="utf-8"?>
<!-- Generator: Adobe Illustrator 25.2.1, SVG Export Plug-In . SVG Version: 6.00 Build 0)  -->
<svg version="1.1" id="Layer_1" xmlns="http://www.w3.org/2000/svg" xmlns:xlink="http://www.w3.org/1999/xlink" x="0px" y="0px"
	 viewBox="0 0 1080 1080" style="enable-background:new 0 0 1080 1080;" xml:space="preserve">
<style type="text/css">
	.st0{fill-rule:evenodd;clip-rule:evenodd;fill:#FFFFFF;}
	.st1{fill-rule:evenodd;clip-rule:evenodd;fill:#BAB8C6;}
	.st2{fill-rule:evenodd;clip-rule:evenodd;fill:#EBE313;}
	.st3{fill:#9F9DA8;}
	.st4{fill-rule:evenodd;clip-rule:evenodd;fill:#9F9DA8;}
	.st5{fill-rule:evenodd;clip-rule:evenodd;fill:#082744;}
	.st6{opacity:0.65;fill-rule:evenodd;clip-rule:evenodd;fill:#BAB8C6;}
</style>
<g id="Flat_Property">
	<path class="st1" d="M28.45,667.16l531.2,300.5V618.1L28.45,317.59V667.16z"/>
	<g>
		<polygon class="st2" points="29.45,666.57 29.45,499.1 558.66,798.48 558.66,965.94 		"/>
		<path class="st3" d="M30.45,500.82l527.2,298.25v165.16L30.45,665.98V500.82 M28.45,497.39v169.76l531.2,300.5V797.9L28.45,497.39
			L28.45,497.39z"/>
	</g>
	<path class="st4" d="M559.66,618.09v349.56L824.4,817.91V467.93l-132.02-74.65L559.66,618.09z"/>
	<path class="st5" d="M174.91,112.34L28.46,317.59l531.2,300.51l132.69-224.81L174.91,112.34z"/>
	<path class="st6" d="M824.84,817.61L559.66,967.65l491.88-121.91l-226.7-127.86V817.61z"/>
	<g>
		<polygon class="st2" points="560.66,798.46 691.36,719.64 691.36,891.46 560.66,965.93 		"/>
		<path class="st3" d="M690.36,721.41v169.47l-128.69,73.33V799.03L690.36,721.41 M692.36,717.87L559.66,797.9v169.75l132.69-75.61
			V717.87L692.36,717.87z"/>
	</g>
</g>
</svg>
