<svg id="Layer_1" data-name="Layer 1" xmlns="http://www.w3.org/2000/svg" viewBox="0 0 1080 1080"><defs><style>.cls-1,.cls-2{fill:#bab8c6;}.cls-1,.cls-2,.cls-3,.cls-4,.cls-5{fill-rule:evenodd;}.cls-1{opacity:0.65;}.cls-3,.cls-6{fill:#9f9da8;}.cls-4{fill:#062744;}.cls-5{fill:#ebe311;}.cls-7{fill:none;stroke:#9f9da8;stroke-miterlimit:10;stroke-width:2px;}</style></defs><g id="Rear_Extension" data-name="Rear Extension"><path class="cls-1" d="M815.64,622.31,1064,767.22,481.42,960.48,816.28,761.14Z"/><path class="cls-2" d="M123.87,317.27,586.93,584V896.7L123.87,630.87Z"/><polygon class="cls-3" points="586.92 583.95 701.9 384.68 814.8 447.18 816.29 761.16 586.92 898.56 586.92 583.95"/><path class="cls-4" d="M586.92,584l115-199.27,112.9,62.5L586.93,583.93"/><polygon class="cls-5" points="482.42 820.16 585.92 758.55 585.92 897.99 482.42 959.25 482.42 820.16"/><path class="cls-6" d="M584.92,760.31V897.42L483.42,957.5V820.73l101.5-60.42m2-3.52-105.5,62.8V961l105.5-62.45V756.79Z"/><polygon class="cls-5" points="17.96 551.01 123.86 489.48 584.97 756.3 481.41 817.91 17.96 551.01"/><path class="cls-6" d="M123.86,490.64,583,756.31,481.4,816.75,20,551l103.9-60.37m0-2.31L16,551,481.42,819.07l105.52-62.78-463.08-268Z"/><polygon class="cls-5" points="16.97 695.42 16.97 553.25 480.42 820.15 480.42 959.27 16.97 695.42"/><path class="cls-6" d="M18,555,479.42,820.73V957.55L18,694.84V555m-2-3.46V696L481.42,961V819.57L16,551.52Z"/><path class="cls-4" d="M123.14,317.59,586.2,584.25,701.18,385,237.64,119Z"/><line class="cls-7" x1="586.94" y1="584.76" x2="701.91" y2="384.64"/></g></svg>