<?xml version="1.0" encoding="utf-8"?>
<!-- Generator: Adobe Illustrator 25.2.1, SVG Export Plug-In . SVG Version: 6.00 Build 0)  -->
<svg version="1.1" id="Layer_1" xmlns="http://www.w3.org/2000/svg" xmlns:xlink="http://www.w3.org/1999/xlink" x="0px" y="0px"
	 viewBox="0 0 1080 1080" style="enable-background:new 0 0 1080 1080;" xml:space="preserve">
<style type="text/css">
	.st0{fill-rule:evenodd;clip-rule:evenodd;fill:#FFFFFF;}
	.st1{fill-rule:evenodd;clip-rule:evenodd;fill:#BAB8C6;}
	.st2{fill-rule:evenodd;clip-rule:evenodd;fill:#9F9DA8;}
	.st3{fill-rule:evenodd;clip-rule:evenodd;fill:#062744;}
	.st4{fill-rule:evenodd;clip-rule:evenodd;fill:#EBE313;}
	.st5{fill:#9F9DA8;}
</style>
<g id="Side_Extenson">
	<path class="st1" d="M25.59,621.79l460.43,264.36V573.84L25.59,308.66V621.79z"/>
	<path class="st2" d="M486.03,573.84l114.35-198.15l112.22,62.14l1.52,312.24l-228.1,136.09V573.84z"/>
	<path class="st3" d="M139.45,111.18L25.63,308.66l460.43,265.18l114.33-198.18L139.45,111.18z"/>
	<g>
		<polygon class="st4" points="629.64,832.18 853.88,698.62 853.88,832.82 629.64,967.06 		"/>
		<path class="st5" d="M852.88,700.38v131.87L630.64,965.29V832.75L852.88,700.38 M854.88,696.86L628.64,831.62v137.2l226.24-135.44
			V696.86L854.88,696.86z"/>
	</g>
	<g>
		<polygon class="st4" points="488.02,747.38 713.63,616.72 852.89,696.86 628.81,830.44 		"/>
		<path class="st5" d="M713.63,617.87l137.28,79.01L628.8,829.28L490,747.38L713.63,617.87 M713.63,615.56l-227.59,131.8
			l142.77,84.24l226.07-134.76L713.63,615.56L713.63,615.56z"/>
	</g>
	<g>
		<polygon class="st4" points="487.03,885.29 487.03,749.12 627.82,831.9 627.63,967.08 		"/>
		<path class="st5" d="M488.03,750.87l138.79,81.6l-0.19,132.88l-138.61-80.63V750.87 M486.03,747.38v138.49l142.6,82.96
			l0.19-137.49L486.03,747.38L486.03,747.38z"/>
	</g>
	<path class="st1" d="M854.87,740.5l199.53,117.89l-425.6,110.43l226.07-135.46V740.5z"/>
</g>
</svg>
