<?xml version="1.0" encoding="utf-8"?>
<!-- Generator: Adobe Illustrator 25.2.1, SVG Export Plug-In . SVG Version: 6.00 Build 0)  -->
<svg version="1.1" id="Layer_1" xmlns="http://www.w3.org/2000/svg" xmlns:xlink="http://www.w3.org/1999/xlink" x="0px" y="0px"
	 viewBox="0 0 1080 1080" style="enable-background:new 0 0 1080 1080;" xml:space="preserve">
<style type="text/css">
	.st0{fill-rule:evenodd;clip-rule:evenodd;fill:#FFFFFF;}
	.st1{fill-rule:evenodd;clip-rule:evenodd;fill:#BAB8C6;}
	.st2{fill-rule:evenodd;clip-rule:evenodd;fill:#9F9DA8;}
	.st3{fill-rule:evenodd;clip-rule:evenodd;fill:#062744;}
	.st4{fill-rule:evenodd;clip-rule:evenodd;fill:#FFFFFF;filter:url(#Adobe_OpacityMaskFilter);}
	.st5{opacity:0.65;mask:url(#mask0_2053_3879_1_);}
	.st6{fill-rule:evenodd;clip-rule:evenodd;fill:#EBE313;}
	.st7{fill:#9F9DA8;}
</style>
<g id="Main_Dormer">
	<path class="st1" d="M22.09,681.74l537.77,310.49v-361.2L22.09,320.55V681.74z"/>
	<path class="st2" d="M559.85,631.04v361.2l268.1-154.71v-361.7L694.3,398.78L559.85,631.04z"/>
	<path class="st3" d="M156.43,87.76L22.09,320.52l537.77,310.52l134.36-232.26L156.43,87.76z"/>
	<defs>
		<filter id="Adobe_OpacityMaskFilter" filterUnits="userSpaceOnUse" x="559.85" y="734.12" width="498.05" height="258.11">
			<feColorMatrix  type="matrix" values="1 0 0 0 0  0 1 0 0 0  0 0 1 0 0  0 0 0 1 0"/>
		</filter>
	</defs>
	<mask maskUnits="userSpaceOnUse" x="559.85" y="734.12" width="498.05" height="258.11" id="mask0_2053_3879_1_">
		<path class="st4" d="M559.85,734.12h498.05v258.1H559.85V734.12z"/>
	</mask>
	<g class="st5">
		<path class="st1" d="M828.34,734.12l229.56,132.16L559.85,992.23l268.49-155.1V734.12z"/>
	</g>
	<g>
		<polygon class="st6" points="48.16,305.46 48.16,151.96 557.48,445.86 557.48,599.23 		"/>
		<path class="st7" d="M49.16,153.69l507.32,292.74V597.5L49.16,304.89V153.69 M47.16,150.23v155.81l511.32,294.92V445.28
			L47.16,150.23L47.16,150.23z"/>
	</g>
	<g>
		<polygon class="st6" points="49.49,150.43 157.76,109.63 666.94,403.33 558.57,444.19 		"/>
		<path class="st7" d="M157.67,110.73l506.94,292.41l-105.95,39.94L51.82,150.62L157.67,110.73 M157.85,108.53L47.16,150.24
			l511.32,295.05l110.8-41.77L157.85,108.53L157.85,108.53z"/>
	</g>
	<g>
		<polygon class="st6" points="559.47,445.95 667.05,405.45 559.47,597.14 		"/>
		<path class="st7" d="M664.84,407.35L560.47,593.32V446.65L664.84,407.35 M669.27,403.55l-110.79,41.71v155.71L669.27,403.55
			L669.27,403.55z"/>
	</g>
</g>
</svg>
