<?xml version="1.0" encoding="utf-8"?>
<!-- Generator: Adobe Illustrator 25.2.1, SVG Export Plug-In . SVG Version: 6.00 Build 0)  -->
<svg version="1.1" id="Layer_1" xmlns="http://www.w3.org/2000/svg" xmlns:xlink="http://www.w3.org/1999/xlink" x="0px" y="0px"
	 viewBox="0 0 1080 1080" style="enable-background:new 0 0 1080 1080;" xml:space="preserve">
<style type="text/css">
	.st0{fill-rule:evenodd;clip-rule:evenodd;fill:#FFFFFF;}
	.st1{opacity:0.65;fill-rule:evenodd;clip-rule:evenodd;fill:#BAB8C6;}
	.st2{fill-rule:evenodd;clip-rule:evenodd;fill:#9F9DA8;}
	.st3{fill-rule:evenodd;clip-rule:evenodd;fill:#EBE313;}
	.st4{fill:#9F9DA8;}
</style>
<g id="Semi_Detached_Property">
	<path class="st1" d="M419.41,903.52l641.51-160.11L810.62,640.08L419.41,903.52z"/>
	<path class="st2" d="M618.92,526.92l-3.9,279.18l195.61-97.42V459.38l-191.68-86.14L618.92,526.92z"/>
	<g>
		<polygon class="st3" points="20.09,676.47 20.09,415.33 418.41,640.67 418.41,901.8 		"/>
		<path class="st4" d="M21.09,417.04l396.32,224.21v258.83L21.09,675.88V417.04 M19.09,413.61v263.44l400.32,226.46V640.08
			L19.09,413.61L19.09,413.61z"/>
	</g>
	<g>
		<polygon class="st3" points="420.41,640.41 617.95,376.25 617.95,535.21 614.03,805.47 420.41,901.9 		"/>
		<path class="st4" d="M616.95,379.25l0,155.93l-3.91,269.66l-191.63,95.44V640.74L616.95,379.25 M618.95,373.24L419.41,640.08
			v263.44l195.61-97.42l3.93-270.88V373.24L618.95,373.24z"/>
	</g>
	<g>
		<polygon class="st3" points="20.63,413.34 219.51,177.73 617.43,373.61 419.14,638.78 		"/>
		<path class="st4" d="M219.77,178.97l396.14,195.01l-197.04,263.5L22.17,413.06L219.77,178.97 M219.25,176.48L19.09,413.61
			l400.32,226.47l199.54-266.84L219.25,176.48L219.25,176.48z"/>
	</g>
</g>
</svg>
