<?xml version="1.0" encoding="utf-8"?>
<!-- Generator: Adobe Illustrator 25.2.1, SVG Export Plug-In . SVG Version: 6.00 Build 0)  -->
<svg version="1.1" id="Layer_1" xmlns="http://www.w3.org/2000/svg" xmlns:xlink="http://www.w3.org/1999/xlink" x="0px" y="0px"
	 viewBox="0 0 1080 1080" style="enable-background:new 0 0 1080 1080;" xml:space="preserve">
<style type="text/css">
	.st0{fill-rule:evenodd;clip-rule:evenodd;fill:#FFFFFF;}
	.st1{fill-rule:evenodd;clip-rule:evenodd;fill:#C5C4CF;}
	.st2{fill-rule:evenodd;clip-rule:evenodd;fill:#9F9DA8;}
	.st3{fill-rule:evenodd;clip-rule:evenodd;fill:#082744;}
	.st4{opacity:0.65;fill-rule:evenodd;clip-rule:evenodd;fill:#BAB8C6;}
	.st5{fill-rule:evenodd;clip-rule:evenodd;fill:#EBE313;}
	.st6{fill:#9F9DA8;}
	.st7{fill-rule:evenodd;clip-rule:evenodd;fill:#BAB8C6;}
</style>
<g id="Terrace_Property">
	<path class="st1" d="M384.93,545.47l369.13,208.81v-242.9L384.93,302.56V545.47z"/>
	<path class="st2" d="M754.05,511.38v243.43l183.96-90.15V407.04l-91.74-51.87L754.05,511.38z"/>
	<path class="st3" d="M477.15,146.05l-92.22,156.5l369.13,208.82l92.21-156.22L477.15,146.05z"/>
	<path class="st4" d="M938.02,664.67l-55.95,27.51l173.74-22.81l-117.48-73.8L938.02,664.67z"/>
	<path class="st1" d="M204.56,635.3l369.13,208.81v-242.9L204.56,392.39V635.3z"/>
	<g>
		<polygon class="st5" points="578.27,586.99 666.2,446.41 757.22,508.89 753.05,754.19 574.7,842.49 		"/>
		<path class="st6" d="M666.49,447.82l89.72,61.59l-4.15,244.15l-176.34,87.31l3.55-253.59L666.49,447.82 M665.9,444.99
			l-88.62,141.7l-3.6,257.42l180.36-89.3l4.19-246.44L665.9,444.99L665.9,444.99z"/>
	</g>
	<g>
		<polygon class="st5" points="205.95,392.02 297.15,237.24 664.52,445.36 573.33,599.86 		"/>
		<path class="st6" d="M297.51,238.59l365.63,207.14L572.97,598.5L207.32,391.65L297.51,238.59 M296.79,235.88l-92.22,156.5
			l369.13,208.82l92.21-156.22L296.79,235.88L296.79,235.88z"/>
	</g>
	<path class="st4" d="M653.09,804.82l264.04-33.34l-35.06-79.31L653.09,804.82z"/>
	<path class="st7" d="M24.19,725.13l369.13,208.81v-242.9L24.19,482.22V725.13z"/>
	<path class="st2" d="M393.32,691.04v242.91l180.36-89.83l3.62-249.77l-91.77-59.52L393.32,691.04z"/>
	<path class="st3" d="M116.42,325.71L24.19,482.22l369.13,208.82l92.21-156.22L116.42,325.71z"/>
	<path class="st4" d="M393.32,933.95l341.81-84.72l-82.03-44.41L393.32,933.95z"/>
</g>
</svg>
